<?xml version="1.0" encoding="utf-8"?>
<!-- Generator: Adobe Illustrator 23.0.1, SVG Export Plug-In . SVG Version: 6.00 Build 0)  -->
<svg version="1.1" id="Layer_1" xmlns="http://www.w3.org/2000/svg" xmlns:xlink="http://www.w3.org/1999/xlink" x="0px" y="0px"
	 viewBox="0 0 105 50" style="enable-background:new 0 0 105 50;" xml:space="preserve">
<title>Logo</title>
<desc>Created with Sketch.</desc>
<g id="Symbols">
	<g id="Header" transform="translate(-30.000000, -28.000000)">
		<g id="Logo" transform="translate(0.000000, 22.000000)">
			<g transform="translate(0.000000, 0.543046)">
				<g>
					<g transform="translate(30.000000, 5.966887)">
						<path id="Fill-1" style="fill:#FFFFFF;" d="M8.9,28.5C4,28.5,0,25.2,0,19.2V7.6h0.9C3.8,7.6,5,8.9,5,11.3v7.5
							c0,3.8,1.8,5.3,4.1,5.3c2,0,3.5-1.4,3.5-4.9V7.6h0.9c2.9,0,4.1,1.3,4.1,3.7V19C17.6,25.3,14.7,28.5,8.9,28.5"/>
						<path id="Fill-3" style="fill:#FFFFFF;" d="M37.3,28.5c-2.2,0-3.6-1.4-3.6-3.3v-8.1c0-3.5-1.5-5-4-5c-2.2,0-3.6,1.7-3.6,4.6
							v11.9h-1.5c-2.1,0-3.5-1.4-3.5-3.3v-8.9c0-4.3,2.8-8.8,9-8.8c4.7,0,8.6,3.2,8.6,9v11.9C38.7,28.5,37.3,28.5,37.3,28.5z"/>
						<path id="Fill-5" style="fill:#FFFFFF;" d="M103.7,7.6c-2.2,0-3.6,1.4-3.6,3.3V19c0,3.5-1.5,5-4,5c-2.2,0-3.6-1.7-3.6-4.6V7.6
							H91c-2.1,0-3.5,1.4-3.5,3.3v8.9c0,4.3,2.8,8.8,9,8.8c4.7,0,8.6-3.2,8.6-9v-12H103.7z"/>
						<g id="Group-9" transform="translate(42.840000, 0.000000)">
							<g id="Clip-8">
							</g>
							<path id="Fill-7" style="fill:#FFFFFF;" d="M6.8,28.2c-4.1,0-6.3-2.2-6.3-6.4V7.9H2c2.4,0,3.8,1.2,3.8,3.8v9.6
								C5.8,23.4,6.7,24,9,24h1v1.1C10,27.3,9.1,28.2,6.8,28.2 M3.1,6C1.4,6,0,4.6,0,3s1.4-3,3.1-3s3.1,1.3,3.1,3
								C6.2,4.6,4.8,6,3.1,6"/>
						</g>
						<path id="Fill-10" style="fill:#FFFFFF;" d="M83.6,28.5c-2.7,0-3.8-1.3-3.8-3.7v-7.9c0-3.4-1.5-4.8-3.7-4.8
							c-2,0-3.4,1.4-3.4,4.3v12.2h-1.4c-2.2,0-3.7-1.3-3.7-3.7V17c0-3.4-1.5-4.8-3.8-4.8c-2,0-3.4,1.6-3.4,4.4v12.1H59
							c-2.1,0-3.6-1.4-3.6-3.7v-7.9c0-5.6,2.9-9.3,9-9.3c2.6,0,4.7,1.2,6.2,3.2c1.2-1.9,3.4-3.2,5.8-3.2c4.7,0,8.4,2.9,8.4,8.7v12.3
							h-1.2V28.5z"/>
						<g id="Group-14" transform="translate(55.440000, 12.588491)">
							<g id="Clip-13">
							</g>
							<path id="Fill-12" style="fill:#FFFFFF;" d="M24.3,31.8c11.2,0,20.3-8.8,20.3-19.6V3.7l4.8-3.4v10.9
								c0,13.8-11.3,24.9-25.2,24.9C12.8,36.1,3.1,28.4,0.1,18C0.1,18,8.2,31.8,24.3,31.8"/>
						</g>
					</g>
				</g>
			</g>
		</g>
	</g>
</g>
</svg>
